<svg xmlns="http://www.w3.org/2000/svg" viewBox="0 0 100 100">
  <defs>
    <clipPath id="body-clip-f">
      <ellipse cx="50" cy="67" rx="21" ry="25"/>
    </clipPath>
  </defs>

  <!-- Wings -->
  <ellipse cx="29" cy="38" rx="20" ry="11" fill="rgba(219,234,254,0.82)" stroke="rgba(147,197,253,0.65)" stroke-width="1" transform="rotate(-22 29 38)"/>
  <ellipse cx="71" cy="38" rx="20" ry="11" fill="rgba(219,234,254,0.82)" stroke="rgba(147,197,253,0.65)" stroke-width="1" transform="rotate(22 71 38)"/>

  <!-- Body base -->
  <ellipse cx="50" cy="67" rx="21" ry="25" fill="#FBBF24"/>
  <g clip-path="url(#body-clip-f)">
    <rect x="27" y="59" width="46" height="9" fill="#1C1917" opacity="0.88"/>
    <rect x="27" y="74" width="46" height="9" fill="#1C1917" opacity="0.88"/>
  </g>
  <ellipse cx="50" cy="67" rx="21" ry="25" fill="none" stroke="#1C1917" stroke-width="1.5"/>

  <!-- Stinger -->
  <path d="M46 91 Q50 99 54 91" fill="#FBBF24" stroke="#1C1917" stroke-width="1.2" stroke-linejoin="round"/>

  <!-- Head -->
  <circle cx="50" cy="37" r="15" fill="#FBBF24" stroke="#1C1917" stroke-width="1.5"/>

  <!-- Rosy cheeks -->
  <circle cx="39" cy="43" r="5" fill="#FDA4AF" opacity="0.55"/>
  <circle cx="61" cy="43" r="5" fill="#FDA4AF" opacity="0.55"/>

  <!-- Eyes -->
  <circle cx="44" cy="35" r="5" fill="white" stroke="#1C1917" stroke-width="1"/>
  <circle cx="56" cy="35" r="5" fill="white" stroke="#1C1917" stroke-width="1"/>
  <circle cx="44.8" cy="35" r="2.8" fill="#1C1917"/>
  <circle cx="56.8" cy="35" r="2.8" fill="#1C1917"/>
  <circle cx="45.8" cy="33.4" r="1.1" fill="white"/>
  <circle cx="57.8" cy="33.4" r="1.1" fill="white"/>

  <!-- Smile -->
  <path d="M43 44 Q50 50 57 44" fill="none" stroke="#1C1917" stroke-width="1.8" stroke-linecap="round"/>

  <!-- Antennae -->
  <path d="M43 23 Q39 15 35 10" fill="none" stroke="#1C1917" stroke-width="1.8" stroke-linecap="round"/>
  <path d="M57 23 Q61 15 65 10" fill="none" stroke="#1C1917" stroke-width="1.8" stroke-linecap="round"/>
  <circle cx="35" cy="9" r="4" fill="#FB7DA0"/>
  <circle cx="65" cy="9" r="4" fill="#FB7DA0"/>
</svg>
