<svg xmlns="http://www.w3.org/2000/svg" viewBox="0 0 600 400" width="600" height="400">
  <rect width="600" height="400" fill="#fdf2c4"/>
  <rect x="20" y="20" width="560" height="360" fill="none" stroke="#1a1a1a" stroke-width="3" stroke-dasharray="14 6"/>
  <ellipse cx="300" cy="190" rx="180" ry="70" fill="none" stroke="#e8423a" stroke-width="6" transform="rotate(-12 300 190)"/>
  <ellipse cx="300" cy="190" rx="120" ry="150" fill="none" stroke="#2b7cd3" stroke-width="4" transform="rotate(28 300 190)"/>
  <g transform="translate(120 150)">
    <ellipse cx="0" cy="40" rx="46" ry="34" fill="#ffffff" stroke="#1a1a1a" stroke-width="3"/>
    <path d="M30 20 C 55 -10, 60 -45, 40 -60" fill="none" stroke="#ffffff" stroke-width="20" stroke-linecap="round"/>
    <path d="M30 20 C 55 -10, 60 -45, 40 -60" fill="none" stroke="#1a1a1a" stroke-width="3"/>
    <circle cx="42" cy="-62" r="13" fill="#ffffff" stroke="#1a1a1a" stroke-width="3"/>
    <circle cx="46" cy="-65" r="2.5" fill="#1a1a1a"/>
    <path d="M38 -72 L 50 -68" stroke="#1a1a1a" stroke-width="3" stroke-linecap="round"/>
    <path d="M53 -62 L 70 -58 L 53 -54 Z" fill="#f6a623" stroke="#1a1a1a" stroke-width="2"/>
    <path d="M70 -58 C 110 -90, 130 -30, 95 -10" fill="none" stroke="#f4c542" stroke-width="5" stroke-linecap="round"/>
    <path d="M-10 72 L -12 92 M 12 72 L 14 92" stroke="#f6a623" stroke-width="5" stroke-linecap="round"/>
  </g>
  <text x="330" y="200" font-family="Georgia, serif" font-size="120" font-weight="bold" fill="#1a1a1a">Y</text>
  <text x="400" y="215" font-family="Comic Sans MS, cursive" font-size="95" fill="#e8423a" transform="rotate(8 430 180)">V</text>
  <text x="470" y="185" font-family="Courier New, monospace" font-size="140" fill="#2b7cd3">B</text>
  <text x="552" y="120" font-family="Arial, sans-serif" font-size="20" fill="#1a1a1a">™?</text>
  <text x="300" y="320" font-family="Arial, sans-serif" font-size="22" fill="#1a1a1a" text-anchor="middle" font-style="italic">"Possibly a company. Results not guaranteed."</text>
  <g transform="translate(230 340)">
    <rect x="0" y="0" width="3" height="24" fill="#1a1a1a"/><rect x="6" y="0" width="2" height="24" fill="#1a1a1a"/>
    <rect x="11" y="0" width="5" height="24" fill="#1a1a1a"/><rect x="19" y="0" width="2" height="24" fill="#1a1a1a"/>
    <rect x="24" y="0" width="4" height="24" fill="#1a1a1a"/><rect x="31" y="0" width="2" height="24" fill="#1a1a1a"/>
    <rect x="36" y="0" width="6" height="24" fill="#1a1a1a"/><rect x="45" y="0" width="3" height="24" fill="#1a1a1a"/>
    <rect x="51" y="0" width="2" height="24" fill="#1a1a1a"/><rect x="56" y="0" width="5" height="24" fill="#1a1a1a"/>
    <rect x="64" y="0" width="2" height="24" fill="#1a1a1a"/><rect x="69" y="0" width="3" height="24" fill="#1a1a1a"/>
    <text x="36" y="36" font-family="Courier New, monospace" font-size="9" fill="#1a1a1a" text-anchor="middle">0000-GOOSE-00</text>
  </g>
</svg>
